<?xml version="1.0" encoding="UTF-8"?><svg id="Layer_1" xmlns="http://www.w3.org/2000/svg" viewBox="0 0 1573.7 344.47"><defs><style>.cls-1{fill:#111;}</style></defs><g id="Box"><path class="cls-1" d="M1098.12,222.6v-1.78h12.73c7.3,0,7.3-4.07,7.3-9.5V11.37c0-5.94,0-9.5-6.36-9.5h-13.66V.08h76.8c34.03,0,69.5,14.51,69.5,53.63,0,24.53-16.8,42.26-39.97,48.63,34.03,3.14,62.71,22.23,62.71,59.49,0,43.11-38.61,60.85-76.29,60.85h-92.67l-.08-.08ZM1139.45,101.75h32.25c30.89,0,49.98-16.8,49.98-48.12s-18.16-49.98-48.63-49.98h-33.61v98.1ZM1186.72,218.95c34.96,0,55.84-22.23,55.84-57.2s-22.74-56.35-58.13-56.35h-44.98v113.55h47.27Z"/><path class="cls-1" d="M1347.03,63.14c44.04,0,79.94,35.9,79.94,79.94s-35.47,79.94-79.52,79.94-80.37-35.9-80.37-79.94,35.9-79.94,79.94-79.94ZM1285.67,137.14c0,36.83,24.1,81.72,65.85,81.72,36.83,0,55.42-36.75,55.42-69.5,0-37.25-23.59-81.72-65.43-81.72-36.83,0-55.84,36.83-55.84,69.5h0Z"/><path class="cls-1" d="M1429.26,74.93c-4.07-5.43-6.36-9.5-13.66-9.5h-6.79v-1.78h59.06v1.78h-11.37c-4.58,0-6.79,1.78-6.79,4.58,0,1.36.42,3.14,1.78,5.01l43.2,57.71,47.69-57.71c1.36-1.78,2.29-3.65,2.29-5.01,0-2.72-2.72-4.58-7.3-4.58h-11.37v-1.78h41.75v1.78h-5.43c-7.3,0-10.44,4.07-15.02,9.5l-50.41,60.85,56.35,75.44c4.07,5.43,6.36,9.5,13.66,9.5h6.79v1.78h-59.06v-1.78h11.37c4.58,0,6.79-1.78,6.79-4.58,0-1.36-.42-3.22-1.78-5.01l-45.91-61.36-50.92,61.36c-1.36,1.78-2.29,3.65-2.29,5.01,0,2.72,2.72,4.58,7.3,4.58h11.37v1.78h-41.75v-1.78h6.79c7.3,0,9.08-4.07,13.66-9.5l53.63-64.5-53.63-71.79h0Z"/></g><g id="Directors"><path class="cls-1" d="M0,222.6v-1.78h12.73c7.3,0,7.3-4.07,7.3-9.5V11.37c-.08-5.94-.08-9.59-6.36-9.59H0V0h86.73c60.85,0,112.19,49.98,112.19,111.26s-46.76,111.26-108.54,111.26H0v.08ZM41.33,3.65v214.87h26.31c64.92,0,107.18-42.26,107.18-107.18S133.06,3.65,67.72,3.65h-26.39Z"/><path class="cls-1" d="M237.62,211.22c0,5.94,0,9.5,6.36,9.5h13.66v1.78h-58.13v-1.78h12.73c7.3,0,7.3-4.07,7.3-9.5v-120.84c0-6.79-2.72-9.5-7.3-9.5-3.65,0-7.72,1.36-12.31,4.07v-1.78l32.67-19.52c3.22-1.78,5.01-.93,5.01,2.72v144.95-.08ZM214.45,25.46c0-7.72,5.43-12.73,13.15-12.73s12.73,5.01,12.73,12.73-5.01,12.73-12.73,12.73-13.15-5.01-13.15-12.73Z"/><path class="cls-1" d="M288.87,111.26c10.01-26.82,33.18-46.34,54.99-46.34,3.65,0,7.3.93,10.44,1.78v21.39c-7.72-5.01-15.45-7.3-22.23-7.3-19.52,0-34.54,16.8-43.11,33.18v97.25c0,5.94,0,9.5,6.36,9.5h13.66v1.78h-58.13v-1.78h12.73c7.3,0,7.3-4.07,7.3-9.5v-120.84c0-6.79-2.72-9.5-7.3-9.5-3.65,0-7.72,1.36-12.31,4.07v-1.78l32.67-19.52c3.22-1.78,5.01-.93,5.01,2.72v44.98l-.08-.08Z"/><path class="cls-1" d="M416.59,64.07c33.18,0,60.85,24.53,68.57,53.12l-121.27,40.9c7.72,42.69,34.96,58.13,61.36,58.13,24.53,0,48.63-13.15,54.99-30.47l1.36.93c-9.5,24.1-36.32,38.19-61.36,38.19-44.04,0-76.8-34.54-76.8-78.16,0-49.47,32.67-82.66,73.15-82.66ZM363.47,155.81l101.33-34.54c-6.36-35.47-31.31-59.49-59.49-53.63-34.03,7.3-46.76,58.13-41.75,88.09l-.08.08Z"/><path class="cls-1" d="M561.96,64.07c33.18,0,59.49,19.09,67.21,47.69l-18.16,4.58c-6.36-35.47-32.25-54.48-60.42-48.63-34.03,7.3-46.76,58.13-41.75,88.09,7.72,43.62,35.9,59.06,63.14,59.06,24.1,0,47.27-12.31,53.63-29.11l1.36.93c-9.5,24.1-36.32,38.19-61.36,38.19-44.04,0-76.8-34.54-76.8-78.16,0-49.47,32.67-82.66,73.15-82.66Z"/><path class="cls-1" d="M613.73,63.56h24.53v-17.74c0-6.79-2.72-9.5-7.3-9.5-3.65,0-7.72,1.36-12.31,4.07v-1.78l32.67-19.52c3.14-1.78,5.01-.93,5.01,2.72v41.75h48.63v1.78h-48.63v116.26c0,17.23,11.37,33.18,29.96,33.18,10.44,0,23.17-5.43,29.53-14.09-6.36,14.51-24.1,21.81-38.61,21.81-28.17,0-39.04-22.23-39.04-47.27v-109.81h-24.53v-1.78l.08-.08Z"/><path class="cls-1" d="M772.25,63.14c44.04,0,79.94,35.9,79.94,79.94s-35.47,79.94-79.52,79.94-80.37-35.9-80.37-79.94,35.9-79.94,79.94-79.94ZM710.9,137.14c0,36.83,24.1,81.72,65.85,81.72,36.83,0,55.42-36.75,55.42-69.5,0-37.25-23.59-81.72-65.43-81.72-36.83,0-55.84,36.83-55.84,69.5Z"/><path class="cls-1" d="M889.96,111.26c10.01-26.82,33.18-46.34,54.99-46.34,3.65,0,7.3.93,10.44,1.78v21.39c-7.72-5.01-15.45-7.3-22.23-7.3-19.52,0-34.54,16.8-43.11,33.18v97.25c0,5.94,0,9.5,6.36,9.5h13.66v1.78h-58.13v-1.78h12.73c7.3,0,7.3-4.07,7.3-9.5v-120.84c0-6.79-2.72-9.5-7.3-9.5-3.65,0-7.72,1.36-12.31,4.07v-1.78l32.67-19.52c3.14-1.78,5.01-.93,5.01,2.72v44.98l-.08-.08Z"/><path class="cls-1" d="M953.09,176.68c10.01,22.23,29.53,42.69,54.99,42.69,18.16,0,47.27-4.07,47.27-28.17,0-40.39-101.75-31.31-101.75-84.95,0-29.53,25.46-44.55,52.28-44.55,12.31,0,42.26,5.94,53.63,10.86v29.96h-1.78c-8.66-21.39-30.89-38.19-53.12-38.19-16.38,0-39.55,9.08-39.55,28.17,0,46.76,102.17,35.47,102.17,87.24,0,32.67-28.17,44.55-56.35,44.55-18.58,0-41.75-4.58-59.49-10.01v-37.68h1.78l-.08.08Z"/></g><path class="cls-1" d="M321.92,327.92c0,10.08-7.28,15.88-21.44,15.88h-26.72v-58.8h25.12c12.88,0,20.08,5.71,20.08,15.2,0,6.38-3.12,10.84-7.52,13.1,6.32,1.85,10.48,6.8,10.48,14.62ZM281.76,291.8v18.82h16.4c8.16,0,12.8-3.19,12.8-9.41s-4.64-9.41-12.8-9.41h-16.4ZM313.84,327.25c0-6.8-4.8-9.83-13.68-9.83h-18.4v19.57h18.4c8.88,0,13.68-2.94,13.68-9.74Z"/><path class="cls-1" d="M418.56,323.47v20.33h-7.92v-20.5l-22.24-38.3h8.56l17.92,31,18-31h7.92l-22.24,38.47Z"/><path class="cls-1" d="M643.6,305.49c0,12.77-8.8,20.5-23.36,20.5h-13.84v17.81h-8v-58.8h21.84c14.56,0,23.36,7.73,23.36,20.5ZM635.6,305.49c0-8.4-5.36-13.19-15.6-13.19h-13.6v26.38h13.6c10.24,0,15.6-4.79,15.6-13.19Z"/><path class="cls-1" d="M756.79,343.8l-12.08-18.06c-1.12.08-2.32.17-3.52.17h-13.84v17.89h-8v-58.8h21.84c14.56,0,23.36,7.73,23.36,20.5,0,9.07-4.48,15.62-12.32,18.56l13.28,19.74h-8.72ZM756.55,305.49c0-8.4-5.36-13.19-15.6-13.19h-13.6v26.46h13.6c10.24,0,15.6-4.87,15.6-13.27Z"/><path class="cls-1" d="M836.95,314.4c0-17.22,12.64-30.07,29.84-30.07s29.68,12.77,29.68,30.07-12.64,30.07-29.68,30.07-29.84-12.85-29.84-30.07ZM888.47,314.4c0-13.02-9.28-22.6-21.68-22.6s-21.84,9.58-21.84,22.6,9.28,22.6,21.84,22.6,21.68-9.58,21.68-22.6Z"/><path class="cls-1" d="M980.71,292.31v20.5h28.08v7.22h-28.08v23.77h-8v-58.8h39.52v7.31h-31.52Z"/><path class="cls-1" d="M1087.51,285h8v58.8h-8v-58.8Z"/><path class="cls-1" d="M1171.75,314.4c0-17.39,12.64-30.07,29.68-30.07,8.64,0,16.16,3.11,21.28,9.16l-5.2,5.29c-4.32-4.79-9.6-6.97-15.76-6.97-12.64,0-22,9.58-22,22.6s9.36,22.6,22,22.6c6.16,0,11.44-2.27,15.76-7.06l5.2,5.29c-5.12,6.05-12.64,9.24-21.36,9.24-16.96,0-29.6-12.68-29.6-30.07Z"/><path class="cls-1" d="M1298.15,285h8v58.8h-8v-58.8Z"/></svg>